<?xml version="1.0" encoding="UTF-8"?>
<!DOCTYPE svg PUBLIC "-//W3C//DTD SVG 1.1//EN" "http://www.w3.org/Graphics/SVG/1.1/DTD/svg11.dtd">
<svg xmlns="http://www.w3.org/2000/svg" version="1.1" width="525px" height="240px" style="shape-rendering:geometricPrecision; text-rendering:geometricPrecision; image-rendering:optimizeQuality; fill-rule:evenodd; clip-rule:evenodd" xmlns:xlink="http://www.w3.org/1999/xlink">
<g><path style="opacity:0.008" fill="#f7f8f7" d="M 219.5,32.5 C 220.833,33.1667 220.833,33.1667 219.5,32.5 Z"/></g>
<g><path style="opacity:0.125" fill="#e0e0e0" d="M 400.5,34.5 C 397.833,34.5 395.167,34.5 392.5,34.5C 394.343,33.7171 396.343,33.0505 398.5,32.5C 399.522,32.8555 400.189,33.5222 400.5,34.5 Z"/></g>
<g><path style="opacity:0.999" fill="#161616" d="M 222.5,34.5 C 224.265,35.4614 226.265,35.7947 228.5,35.5C 231.93,36.5416 234.597,38.5416 236.5,41.5C 237.11,42.391 237.443,43.391 237.5,44.5C 237.5,45.8333 237.5,47.1667 237.5,48.5C 237.368,55.3063 234.035,57.9729 227.5,56.5C 227.027,55.0937 226.027,54.427 224.5,54.5C 223.212,51.2999 223.212,47.9666 224.5,44.5C 222.002,41.932 219.669,41.932 217.5,44.5C 216.21,45.0577 215.377,46.0577 215,47.5C 212.956,52.1271 211.456,56.7938 210.5,61.5C 209.835,64.4815 209.502,67.6482 209.5,71C 209.308,75.7721 209.975,80.2721 211.5,84.5C 212.941,88.0677 214.441,91.7344 216,95.5C 222.517,101.704 226.517,100.371 228,91.5C 228.534,87.141 228.368,82.8076 227.5,78.5C 225.5,78.5 223.5,78.5 221.5,78.5C 219.821,78.7148 218.821,78.0481 218.5,76.5C 218.335,72.8183 218.501,69.1516 219,65.5C 220.356,66.3802 221.856,66.7135 223.5,66.5C 227.97,67.4861 232.637,67.8195 237.5,67.5C 237.185,71.3714 237.518,75.0381 238.5,78.5C 240.85,87.5749 239.184,95.7416 233.5,103C 231.423,104.705 229.09,105.872 226.5,106.5C 223.5,106.5 220.5,106.5 217.5,106.5C 210.198,105.376 205.031,101.376 202,94.5C 195.848,78.2828 196.015,62.2828 202.5,46.5C 203.906,46.0269 204.573,45.0269 204.5,43.5C 205.833,42.8333 206.833,41.8333 207.5,40.5C 207.5,39.8333 207.833,39.5 208.5,39.5C 209.5,39.1667 210.167,38.5 210.5,37.5C 210.393,35.6214 210.893,35.2881 212,36.5C 215.285,34.8627 218.785,34.1961 222.5,34.5 Z"/></g>
<g><path style="opacity:0.62" fill="#7c7c7c" d="M 228.5,35.5 C 226.265,35.7947 224.265,35.4614 222.5,34.5C 222.435,34.0618 222.601,33.7284 223,33.5C 224.948,34.1094 226.782,34.776 228.5,35.5 Z"/></g>
<g><path style="opacity:0.999" fill="#131313" d="M 317.5,42.5 C 317.427,44.0269 318.094,45.0269 319.5,45.5C 319.557,46.609 319.89,47.609 320.5,48.5C 320.232,50.099 320.566,51.4324 321.5,52.5C 323.463,56.6461 324.13,60.9794 323.5,65.5C 323.5,69.5 323.5,73.5 323.5,77.5C 323.552,79.9029 323.219,82.2362 322.5,84.5C 321.061,86.588 320.394,88.9214 320.5,91.5C 316.984,102.005 309.651,107.005 298.5,106.5C 297.07,105.463 295.403,104.796 293.5,104.5C 288.467,101.798 284.8,97.7981 282.5,92.5C 281.85,90.5648 281.517,88.5648 281.5,86.5C 281.672,85.5084 281.338,84.8417 280.5,84.5C 279.195,74.5069 279.195,64.5069 280.5,54.5C 281.285,52.6264 281.952,50.6264 282.5,48.5C 283.338,48.1583 283.672,47.4916 283.5,46.5C 284.756,42.9837 286.756,39.9837 289.5,37.5C 300.52,30.8228 309.853,32.4894 317.5,42.5 Z M 299.5,42.5 C 301.565,42.5172 303.565,42.8505 305.5,43.5C 307.384,46.6035 308.718,49.9368 309.5,53.5C 307.922,55.3747 308.255,56.7081 310.5,57.5C 310.293,65.3567 310.293,72.69 310.5,79.5C 310.5,80.8333 310.5,82.1667 310.5,83.5C 309.761,83.369 309.094,83.5357 308.5,84C 308.351,85.8157 308.351,87.649 308.5,89.5C 307.392,97.1503 303.558,99.1503 297,95.5C 296.062,93.5115 295.228,91.5115 294.5,89.5C 296.31,86.0462 295.643,83.3796 292.5,81.5C 292.5,80.8333 292.5,80.1667 292.5,79.5C 292.505,72.8715 292.505,66.2048 292.5,59.5C 292.5,58.8333 292.833,58.5 293.5,58.5C 293.085,52.09 295.085,46.7567 299.5,42.5 Z"/></g>
<g><path style="opacity:0.014" fill="#d7d7d7" d="M 390.5,34.5 C 388.972,35.3092 387.306,35.9759 385.5,36.5C 386.552,34.744 388.219,34.0773 390.5,34.5 Z"/></g>
<g><path style="opacity:0.999" fill="#111111" d="M 390.5,34.5 C 391.167,34.5 391.833,34.5 392.5,34.5C 395.167,34.5 397.833,34.5 400.5,34.5C 406.28,36.5792 409.613,40.2458 410.5,45.5C 410.66,47.153 411.326,48.4863 412.5,49.5C 412.918,50.2216 413.584,50.7216 414.5,51C 413.833,51.3333 413.167,51.6667 412.5,52C 413.715,64.1103 413.715,76.277 412.5,88.5C 411.512,93.6405 411.179,98.9738 411.5,104.5C 407.167,104.5 402.833,104.5 398.5,104.5C 398.5,102.833 398.5,101.167 398.5,99.5C 398.613,94.482 398.947,89.482 399.5,84.5C 395.833,84.5 392.167,84.5 388.5,84.5C 388.647,90.3069 388.98,96.3069 389.5,102.5C 389.218,103.778 388.551,104.778 387.5,105.5C 383.894,105.211 380.394,105.544 377,106.5C 375.324,88.1647 375.158,69.8314 376.5,51.5C 377.404,50.791 377.737,49.791 377.5,48.5C 377.5,47.8333 377.5,47.1667 377.5,46.5C 378.833,44.5 380.167,42.5 381.5,40.5C 382.833,39.8333 383.833,38.8333 384.5,37.5C 384.5,36.8333 384.833,36.5 385.5,36.5C 387.306,35.9759 388.972,35.3092 390.5,34.5 Z M 401.5,67.5 C 400.715,69.3736 400.048,71.3736 399.5,73.5C 395.563,73.7935 391.73,73.4601 388,72.5C 387.501,67.5111 387.334,62.5111 387.5,57.5C 387.5,57.1667 387.5,56.8333 387.5,56.5C 388.828,54.5564 389.161,52.5564 388.5,50.5C 389.542,48.2615 390.875,46.0948 392.5,44C 394.441,43.2571 396.274,43.4238 398,44.5C 400.966,51.8477 402.133,59.5143 401.5,67.5 Z"/></g>
<g><path style="opacity:0.341" fill="#c2c2c2" d="M 433.5,41.5 C 433.5,39.8333 433.5,38.1667 433.5,36.5C 429.833,36.5 426.167,36.5 422.5,36.5C 425.897,35.8018 429.397,35.1352 433,34.5C 434.728,36.8194 434.895,39.1527 433.5,41.5 Z"/></g>
<g><path style="opacity:0.999" fill="#151515" d="M 258.5,40.5 C 257.539,42.2646 257.205,44.2646 257.5,46.5C 257.5,48.8333 257.5,51.1667 257.5,53.5C 257.576,67.8235 257.576,81.9902 257.5,96C 263.199,96.0959 268.865,95.5959 274.5,94.5C 276.423,98.0293 277.089,102.029 276.5,106.5C 266.167,106.5 255.833,106.5 245.5,106.5C 245.5,103.5 245.5,100.5 245.5,97.5C 245.221,88.4653 245.555,79.4653 246.5,70.5C 245.395,58.8548 244.895,47.1881 245,35.5C 249.299,35.4584 253.799,35.6251 258.5,36C 259.728,37.4902 259.728,38.9902 258.5,40.5 Z"/></g>
<g><path style="opacity:0.004" fill="#f7f8f7" d="M 289.5,37.5 C 288.833,36.1667 288.833,36.1667 289.5,37.5 Z"/></g>
<g><path style="opacity:0.999" fill="#131313" d="M 369.5,49.5 C 369.5,51.1667 369.5,52.8333 369.5,54.5C 368.965,60.8719 365.631,65.0386 359.5,67C 360.244,68.0386 361.244,68.5386 362.5,68.5C 362.833,69.5 363.5,70.1667 364.5,70.5C 367.745,72.9697 369.412,75.9697 369.5,79.5C 369.5,83.1667 369.5,86.8333 369.5,90.5C 368.268,96.4282 364.935,100.928 359.5,104C 355.695,105.38 351.862,106.547 348,107.5C 343.329,107.756 338.496,107.423 333.5,106.5C 332.329,105.655 330.995,104.989 329.5,104.5C 329.454,97.8092 329.788,91.1426 330.5,84.5C 330.5,81.1667 330.5,77.8333 330.5,74.5C 329.531,67.8064 329.531,61.1398 330.5,54.5C 329.94,47.8787 330.607,41.5454 332.5,35.5C 336.977,35.485 341.31,35.1517 345.5,34.5C 355.327,34.7697 363.327,38.6031 369.5,46C 368.829,46.9862 368.829,48.1529 369.5,49.5 Z M 352.5,45.5 C 353.594,47.6121 354.594,49.7787 355.5,52C 355.742,54.072 355.409,56.2386 354.5,58.5C 352.393,60.5802 350.059,61.4135 347.5,61C 347.833,61.3333 348.167,61.6667 348.5,62C 347.263,62.2321 346.263,62.7321 345.5,63.5C 344.542,61.6976 343.875,59.6976 343.5,57.5C 345.994,55.594 345.994,53.594 343.5,51.5C 343.232,48.8806 343.565,46.3806 344.5,44C 347.159,44.1604 349.826,44.6604 352.5,45.5 Z M 349.5,72.5 C 356.956,79.0077 358.289,86.6743 353.5,95.5C 351.973,95.427 350.973,96.0937 350.5,97.5C 348.139,97.6741 345.806,98.0074 343.5,98.5C 343.794,92.739 343.794,87.0723 343.5,81.5C 344.289,81.2172 344.956,80.7172 345.5,80C 344.209,78.7083 344.209,77.5417 345.5,76.5C 344.488,74.8998 344.988,73.5665 347,72.5C 347.77,73.5981 348.603,73.5981 349.5,72.5 Z"/></g>
<g><path style="opacity:0.999" fill="#141414" d="M 420.5,36.5 C 421.167,36.5 421.833,36.5 422.5,36.5C 426.167,36.5 429.833,36.5 433.5,36.5C 433.5,38.1667 433.5,39.8333 433.5,41.5C 432.894,58.0368 432.561,74.3701 432.5,90.5C 432.5,92.8333 432.5,95.1667 432.5,97.5C 434.415,97.7845 436.081,97.4511 437.5,96.5C 441.736,95.9915 445.736,94.9915 449.5,93.5C 450.5,93.5 451.5,93.5 452.5,93.5C 452.831,98.484 452.831,102.984 452.5,107C 441.505,107.5 430.505,107.667 419.5,107.5C 421.483,86.1904 421.816,64.857 420.5,43.5C 420.5,41.1667 420.5,38.8333 420.5,36.5 Z"/></g>
<g><path style="opacity:0.204" fill="#c0c0c0" d="M 210.5,37.5 C 210.167,38.5 209.5,39.1667 208.5,39.5C 208.5,38.1667 209.167,37.5 210.5,37.5 Z"/></g>
<g><path style="opacity:0.486" fill="#bebebe" d="M 420.5,36.5 C 420.5,38.8333 420.5,41.1667 420.5,43.5C 419.776,41.7816 419.109,39.9483 418.5,38C 419.126,37.2496 419.626,36.4162 420,35.5C 420.399,35.7284 420.565,36.0618 420.5,36.5 Z"/></g>
<g><path style="opacity:0.506" fill="#a7a7a7" d="M 332.5,35.5 C 330.607,41.5454 329.94,47.8787 330.5,54.5C 329.814,48.7661 329.148,42.9328 328.5,37C 329.317,34.6275 330.65,34.1275 332.5,35.5 Z"/></g>
<g><path style="opacity:0.259" fill="#c5c5c5" d="M 384.5,37.5 C 383.833,38.8333 382.833,39.8333 381.5,40.5C 381.5,38.5 382.5,37.5 384.5,37.5 Z"/></g>
<g><path style="opacity:0.004" fill="#f8f9f8" d="M 236.5,40.5 C 237.833,41.1667 237.833,41.1667 236.5,40.5 Z"/></g>
<g><path style="opacity:0.498" fill="#777777" d="M 299.5,42.5 C 300.097,41.8614 300.93,41.528 302,41.5C 303.699,41.3866 304.866,42.0532 305.5,43.5C 303.565,42.8505 301.565,42.5172 299.5,42.5 Z"/></g>
<g><path style="opacity:0.494" fill="#919191" d="M 207.5,40.5 C 206.833,41.8333 205.833,42.8333 204.5,43.5C 204.5,41.5 205.5,40.5 207.5,40.5 Z"/></g>
<g><path style="opacity:0.604" fill="#6b6b6b" d="M 258.5,40.5 C 258.935,42.2967 258.935,44.2967 258.5,46.5C 258.167,46.5 257.833,46.5 257.5,46.5C 257.205,44.2646 257.539,42.2646 258.5,40.5 Z"/></g>
<g><path style="opacity:0.004" fill="#f4f5f4" d="M 217.5,44.5 C 218.833,45.1667 218.833,45.1667 217.5,44.5 Z"/></g>
<g><path style="opacity:0.009" fill="#f7f7f7" d="M 237.5,44.5 C 239.781,46.0322 239.781,47.3656 237.5,48.5C 237.5,47.1667 237.5,45.8333 237.5,44.5 Z"/></g>
<g><path style="opacity:0.216" fill="#bcbcbc" d="M 317.5,42.5 C 318.906,42.9731 319.573,43.9731 319.5,45.5C 318.094,45.0269 317.427,44.0269 317.5,42.5 Z"/></g>
<g><path style="opacity:0.284" fill="#bfbfbf" d="M 132.5,46.5 C 110.5,46.5 88.5,46.5 66.5,46.5C 74.6702,45.7092 83.0036,45.0425 91.5,44.5C 98.8448,45.7514 106.178,45.7514 113.5,44.5C 119.985,45.0906 126.319,45.7572 132.5,46.5 Z"/></g>
<g><path style="opacity:0.365" fill="#a4a4a4" d="M 204.5,43.5 C 204.573,45.0269 203.906,46.0269 202.5,46.5C 202.427,44.9731 203.094,43.9731 204.5,43.5 Z"/></g>
<g><path style="opacity:0.004" fill="#f3f4f3" d="M 377.5,46.5 C 376.833,45.1667 376.833,45.1667 377.5,46.5 Z"/></g>
<g><path style="opacity:0.998" fill="#1c1c1c" d="M 66.5,46.5 C 88.5,46.5 110.5,46.5 132.5,46.5C 148.611,48.387 161.611,55.7203 171.5,68.5C 171.427,70.0269 172.094,71.0269 173.5,71.5C 176.258,74.678 178.258,78.3447 179.5,82.5C 179.12,84.698 179.787,86.3646 181.5,87.5C 187.086,105.573 184.753,122.573 174.5,138.5C 173.5,138.833 172.833,139.5 172.5,140.5C 168.922,146.974 163.922,152.14 157.5,156C 150.926,159.348 144.259,162.182 137.5,164.5C 121.732,167.207 107.066,164.54 93.5,156.5C 93.0269,155.094 92.0269,154.427 90.5,154.5C 89.8333,154.5 89.5,154.167 89.5,153.5C 89.0269,152.094 88.0269,151.427 86.5,151.5C 85.5,151.167 84.8333,150.5 84.5,149.5C 83.8333,148.167 82.8333,147.167 81.5,146.5C 74.5642,140.31 69.8975,132.643 67.5,123.5C 67.7373,122.209 67.404,121.209 66.5,120.5C 65.7904,118.254 65.2904,115.92 65,113.5C 64.3333,91.5 64.3333,69.5 65,47.5C 65.3826,46.944 65.8826,46.6107 66.5,46.5 Z M 88.5,53.5 C 88.811,54.4778 89.4777,55.1445 90.5,55.5C 92.7471,56.0653 94.7471,55.3987 96.5,53.5C 97.5,53.5 98.5,53.5 99.5,53.5C 100.694,54.7773 102.36,55.4439 104.5,55.5C 106.167,55.3333 107.833,55.1667 109.5,55C 110.056,54.6174 110.389,54.1174 110.5,53.5C 116.5,53.5 122.5,53.5 128.5,53.5C 138.408,54.4682 147.408,57.8016 155.5,63.5C 156.262,65.2624 157.596,66.2624 159.5,66.5C 159.5,67.1667 159.833,67.5 160.5,67.5C 160.5,68.8333 161.167,69.5 162.5,69.5C 163.136,71.7946 164.469,73.4613 166.5,74.5C 167.529,76.5168 168.529,78.5168 169.5,80.5C 176.376,92.3037 178.209,104.97 175,118.5C 172.916,125.659 169.416,132.325 164.5,138.5C 163.094,138.973 162.427,139.973 162.5,141.5C 160.427,143.58 158.093,145.246 155.5,146.5C 154.694,147.728 153.694,148.728 152.5,149.5C 150.973,149.427 149.973,150.094 149.5,151.5C 148.075,149.969 147.409,150.302 147.5,152.5C 145.167,153.167 142.833,153.833 140.5,154.5C 131.455,157.821 122.122,158.321 112.5,156C 107.93,154.948 103.597,153.448 99.5,151.5C 98.5637,150.026 97.2303,149.026 95.5,148.5C 94.8333,148.5 94.5,148.167 94.5,147.5C 86.1514,142.164 80.1514,134.83 76.5,125.5C 76.2041,123.597 75.5375,121.93 74.5,120.5C 73.962,118.883 73.6287,117.216 73.5,115.5C 73.9382,115.565 74.2716,115.399 74.5,115C 73.9341,114.005 73.2674,113.172 72.5,112.5C 72.5,112.167 72.5,111.833 72.5,111.5C 72.3334,92.4971 72.5001,73.4971 73,54.5C 78.0717,53.5286 83.2384,53.1953 88.5,53.5 Z M 143.5,76.5 C 143.973,77.9063 144.973,78.573 146.5,78.5C 158.422,89.9569 161.755,103.624 156.5,119.5C 155.094,119.973 154.427,120.973 154.5,122.5C 141.1,140.755 124.434,144.588 104.5,134C 95.2534,126.506 90.2534,116.84 89.5,105C 89.2004,93.7954 89.5337,82.462 90.5,71C 101.341,70.4819 112.675,70.4819 124.5,71C 131.328,71.3339 137.661,73.1673 143.5,76.5 Z"/></g>
<g><path style="opacity:0.006" fill="#cccccc" d="M 410.5,45.5 C 412.104,46.287 412.771,47.6203 412.5,49.5C 411.326,48.4863 410.66,47.153 410.5,45.5 Z"/></g>
<g><path style="opacity:0.259" fill="#dcdcdc" d="M 283.5,46.5 C 283.672,47.4916 283.338,48.1583 282.5,48.5C 281.561,47.6726 281.895,47.0059 283.5,46.5 Z"/></g>
<g><path style="opacity:0.024" fill="#c5c5c5" d="M 352.5,45.5 C 356.17,48.1713 357.337,51.8379 356,56.5C 355.722,57.4158 355.222,58.0825 354.5,58.5C 355.409,56.2386 355.742,54.072 355.5,52C 354.594,49.7787 353.594,47.6121 352.5,45.5 Z"/></g>
<g><path style="opacity:0.051" fill="#e0e0e0" d="M 377.5,48.5 C 377.737,49.791 377.404,50.791 376.5,51.5C 376.389,50.6634 376.056,49.6634 375.5,48.5C 375.97,47.537 376.637,47.537 377.5,48.5 Z"/></g>
<g><path style="opacity:0.082" fill="#d6d6d6" d="M 257.5,46.5 C 257.833,46.5 258.167,46.5 258.5,46.5C 259.102,48.3379 259.435,50.1712 259.5,52C 258.956,52.7172 258.289,53.2172 257.5,53.5C 257.5,51.1667 257.5,48.8333 257.5,46.5 Z"/></g>
<g><path style="opacity:0.871" fill="#808080" d="M 320.5,48.5 C 322.109,49.6654 322.443,50.9988 321.5,52.5C 320.566,51.4324 320.232,50.099 320.5,48.5 Z"/></g>
<g><path style="opacity:0.039" fill="#f0f0f0" d="M 369.5,49.5 C 372.139,50.7058 372.972,52.7058 372,55.5C 371.329,54.7476 370.496,54.4142 369.5,54.5C 369.5,52.8333 369.5,51.1667 369.5,49.5 Z"/></g>
<g><path style="opacity:0.58" fill="#a4a4a4" d="M 388.5,50.5 C 389.161,52.5564 388.828,54.5564 387.5,56.5C 387.205,54.2646 387.539,52.2646 388.5,50.5 Z"/></g>
<g><path style="opacity:0.032" fill="#f2f2f2" d="M 343.5,51.5 C 345.994,53.594 345.994,55.594 343.5,57.5C 343.5,55.5 343.5,53.5 343.5,51.5 Z"/></g>
<g><path style="opacity:0.012" fill="#f0f0f0" d="M 88.5,53.5 C 91.1667,53.5 93.8333,53.5 96.5,53.5C 94.7471,55.3987 92.7471,56.0653 90.5,55.5C 89.4777,55.1445 88.811,54.4778 88.5,53.5 Z"/></g>
<g><path style="opacity:0.01" fill="#f0f0f0" d="M 99.5,53.5 C 103.167,53.5 106.833,53.5 110.5,53.5C 110.389,54.1174 110.056,54.6174 109.5,55C 107.833,55.1667 106.167,55.3333 104.5,55.5C 102.36,55.4439 100.694,54.7773 99.5,53.5 Z"/></g>
<g><path style="opacity:0.02" fill="#f8f9f8" d="M 280.5,54.5 C 279.833,53.1667 279.833,53.1667 280.5,54.5 Z"/></g>
<g><path style="opacity:0.5" fill="#7c7c7c" d="M 128.5,53.5 C 122.5,53.5 116.5,53.5 110.5,53.5C 106.833,53.5 103.167,53.5 99.5,53.5C 98.5,53.5 97.5,53.5 96.5,53.5C 93.8333,53.5 91.1667,53.5 88.5,53.5C 83.2384,53.1953 78.0717,53.5286 73,54.5C 72.5001,73.4971 72.3334,92.4971 72.5,111.5C 71.3377,92.3377 71.171,73.0044 72,53.5C 90.9311,52.1691 109.764,52.1691 128.5,53.5 Z"/></g>
<g><path style="opacity:0.514" fill="#848484" d="M 224.5,54.5 C 226.027,54.427 227.027,55.0937 227.5,56.5C 225.973,56.573 224.973,55.9063 224.5,54.5 Z"/></g>
<g><path style="opacity:0.071" fill="#e1e1e1" d="M 309.5,53.5 C 310.434,54.5676 310.768,55.901 310.5,57.5C 308.255,56.7081 307.922,55.3747 309.5,53.5 Z"/></g>
<g><path style="opacity:0.02" fill="#f1f2f1" d="M 324.5,57.5 C 325.833,58.1667 325.833,58.1667 324.5,57.5 Z"/></g>
<g><path style="opacity:0.008" fill="#f7f8f7" d="M 324.5,59.5 C 325.833,60.1667 325.833,60.1667 324.5,59.5 Z"/></g>
<g><path style="opacity:0.03" fill="#f1f1f1" d="M 98.5,63.5 C 95.1667,63.5 91.8333,63.5 88.5,63.5C 89.4166,61.4894 91.0832,60.4894 93.5,60.5C 95.9168,60.4894 97.5834,61.4894 98.5,63.5 Z"/></g>
<g><path style="opacity:0.047" fill="#d2d2d2" d="M 354.5,58.5 C 352.652,61.9308 349.652,63.5975 345.5,63.5C 346.263,62.7321 347.263,62.2321 348.5,62C 348.167,61.6667 347.833,61.3333 347.5,61C 350.059,61.4135 352.393,60.5802 354.5,58.5 Z"/></g>
<g><path style="opacity:0.999" fill="#1a1a1a" d="M 139.5,65.5 C 141.261,66.3127 142.928,67.3127 144.5,68.5C 145.29,69.4013 146.29,70.0679 147.5,70.5C 153.479,73.8119 158.145,78.4786 161.5,84.5C 163.217,87.9802 164.55,91.6468 165.5,95.5C 165.5,101.833 165.5,108.167 165.5,114.5C 159.703,135.966 145.703,146.966 123.5,147.5C 121.052,146.527 118.385,146.194 115.5,146.5C 110.207,145.686 105.207,144.019 100.5,141.5C 99.5,140.167 98.5,138.833 97.5,137.5C 96.7377,135.738 95.4044,134.738 93.5,134.5C 92.194,132.527 90.5273,130.861 88.5,129.5C 86.1174,124.728 84.284,119.728 83,114.5C 82.3333,97.8333 82.3333,81.1667 83,64.5C 84.6995,63.5939 86.5328,63.2606 88.5,63.5C 91.8333,63.5 95.1667,63.5 98.5,63.5C 102.552,63.6941 106.718,63.3608 111,62.5C 120.563,62.9661 130.063,63.9661 139.5,65.5 Z M 143.5,76.5 C 143.973,77.9063 144.973,78.573 146.5,78.5C 158.422,89.9569 161.755,103.624 156.5,119.5C 155.094,119.973 154.427,120.973 154.5,122.5C 141.1,140.755 124.434,144.588 104.5,134C 95.2534,126.506 90.2534,116.84 89.5,105C 89.2004,93.7954 89.5337,82.462 90.5,71C 101.341,70.4819 112.675,70.4819 124.5,71C 131.328,71.3339 137.661,73.1673 143.5,76.5 Z"/></g>
<g><path style="opacity:0.478" fill="#969696" d="M 155.5,63.5 C 157.404,63.7376 158.738,64.7376 159.5,66.5C 157.596,66.2624 156.262,65.2624 155.5,63.5 Z"/></g>
<g><path style="opacity:0.004" fill="#fafbfa" d="M 325.5,64.5 C 326.833,65.1667 326.833,65.1667 325.5,64.5 Z"/></g>
<g><path style="opacity:0.245" fill="#a5a5a5" d="M 310.5,57.5 C 311.833,64.8333 311.833,72.1667 310.5,79.5C 310.293,72.69 310.293,65.3567 310.5,57.5 Z"/></g>
<g><path style="opacity:0.371" fill="#8f8f8f" d="M 223.5,66.5 C 228.5,66.5 233.5,66.5 238.5,66.5C 238.853,71.0815 238.853,75.0815 238.5,78.5C 237.518,75.0381 237.185,71.3714 237.5,67.5C 232.637,67.8195 227.97,67.4861 223.5,66.5 Z"/></g>
<g><path style="opacity:0.008" fill="#c6c6c6" d="M 144.5,68.5 C 146.179,68.2852 147.179,68.9519 147.5,70.5C 146.29,70.0679 145.29,69.4013 144.5,68.5 Z"/></g>
<g><path style="opacity:0.008" fill="#cbcbcb" d="M 160.5,67.5 C 161.5,67.8333 162.167,68.5 162.5,69.5C 161.167,69.5 160.5,68.8333 160.5,67.5 Z"/></g>
<g><path style="opacity:0.373" fill="#8a8a8a" d="M 210.5,61.5 C 210.482,69.4675 210.816,77.1341 211.5,84.5C 209.975,80.2721 209.308,75.7721 209.5,71C 209.502,67.6482 209.835,64.4815 210.5,61.5 Z"/></g>
<g><path style="opacity:0.004" fill="#eaeaea" d="M 362.5,68.5 C 363.833,68.5 364.5,69.1667 364.5,70.5C 363.5,70.1667 362.833,69.5 362.5,68.5 Z"/></g>
<g><path style="opacity:0.596" fill="#a3a3a3" d="M 171.5,68.5 C 172.906,68.9731 173.573,69.9731 173.5,71.5C 172.094,71.0269 171.427,70.0269 171.5,68.5 Z"/></g>
<g><path style="opacity:0.012" fill="#c9c9c9" d="M 162.5,69.5 C 164.543,70.5794 165.876,72.246 166.5,74.5C 164.469,73.4613 163.136,71.7946 162.5,69.5 Z"/></g>
<g><path style="opacity:0.51" fill="#6f6f6f" d="M 292.5,59.5 C 292.505,66.2048 292.505,72.8715 292.5,79.5C 291.167,72.8333 291.167,66.1667 292.5,59.5 Z"/></g>
<g><path style="opacity:0.38" fill="#acacac" d="M 401.5,67.5 C 401.975,70.0821 401.308,72.0821 399.5,73.5C 400.048,71.3736 400.715,69.3736 401.5,67.5 Z"/></g>
<g><path style="opacity:0.014" fill="#eeeeee" d="M 323.5,65.5 C 324.695,65.8656 325.361,66.699 325.5,68C 324.852,69.4397 324.519,70.9397 324.5,72.5C 325.822,72.67 326.989,72.3366 328,71.5C 328.377,72.9423 329.21,73.9423 330.5,74.5C 330.5,77.8333 330.5,81.1667 330.5,84.5C 329.522,84.189 328.855,83.5223 328.5,82.5C 330.798,76.1261 329.132,74.4595 323.5,77.5C 323.5,73.5 323.5,69.5 323.5,65.5 Z"/></g>
<g><path style="opacity:0.608" fill="#676767" d="M 387.5,57.5 C 387.334,62.5111 387.501,67.5111 388,72.5C 391.73,73.4601 395.563,73.7935 399.5,73.5C 395.434,74.822 391.267,74.822 387,73.5C 386.183,67.9836 386.349,62.6503 387.5,57.5 Z"/></g>
<g><path style="opacity:0.114" fill="#dedede" d="M 349.5,72.5 C 348.603,73.5981 347.77,73.5981 347,72.5C 344.988,73.5665 344.488,74.8998 345.5,76.5C 344.209,77.5417 344.209,78.7083 345.5,80C 344.956,80.7172 344.289,81.2172 343.5,81.5C 343.5,78.1667 343.5,74.8333 343.5,71.5C 345.735,71.2053 347.735,71.5386 349.5,72.5 Z"/></g>
<g><path style="opacity:0.6" fill="#969696" d="M 143.5,76.5 C 145.027,76.427 146.027,77.0937 146.5,78.5C 144.973,78.573 143.973,77.9063 143.5,76.5 Z"/></g>
<g><path style="opacity:0.482" fill="#9c9c9c" d="M 218.5,76.5 C 218.821,78.0481 219.821,78.7148 221.5,78.5C 220.432,79.4345 219.099,79.7678 217.5,79.5C 217.263,78.209 217.596,77.209 218.5,76.5 Z"/></g>
<g><path style="opacity:0.501" fill="#b0b0b0" d="M 369.5,79.5 C 370.289,79.7828 370.956,80.2828 371.5,81C 370.167,83.3333 370.167,85.6667 371.5,88C 370.934,88.9947 370.267,89.828 369.5,90.5C 369.5,86.8333 369.5,83.1667 369.5,79.5 Z"/></g>
<g><path style="opacity:0.023" fill="#e4e4e4" d="M 292.5,81.5 C 295.643,83.3796 296.31,86.0462 294.5,89.5C 293.629,86.997 292.963,84.3303 292.5,81.5 Z"/></g>
<g><path style="opacity:0.03" fill="#dbdbdb" d="M 322.5,84.5 C 323.478,84.811 324.145,85.4777 324.5,86.5C 322.851,87.9814 321.518,89.6481 320.5,91.5C 320.394,88.9214 321.061,86.588 322.5,84.5 Z"/></g>
<g><path style="opacity:0.965" fill="#6b6b6b" d="M 179.5,82.5 C 180.931,83.7804 181.598,85.4471 181.5,87.5C 179.787,86.3646 179.12,84.698 179.5,82.5 Z"/></g>
<g><path style="opacity:0.067" fill="#e0e0e0" d="M 280.5,84.5 C 281.338,84.8417 281.672,85.5084 281.5,86.5C 279.302,86.5912 278.969,85.9245 280.5,84.5 Z"/></g>
<g><path style="opacity:0.004" fill="#f6f7f6" d="M 390.5,85.5 C 391.833,86.1667 391.833,86.1667 390.5,85.5 Z"/></g>
<g><path style="opacity:0.01" fill="#d4d4d4" d="M 310.5,83.5 C 310.741,85.8984 310.074,87.8984 308.5,89.5C 308.351,87.649 308.351,85.8157 308.5,84C 309.094,83.5357 309.761,83.369 310.5,83.5 Z"/></g>
<g><path style="opacity:0.012" fill="#f4f5f4" d="M 278.5,91.5 C 279.833,92.1667 279.833,92.1667 278.5,91.5 Z"/></g>
<g><path style="opacity:0.024" fill="#f6f7f6" d="M 278.5,92.5 C 278.5,92.8333 278.5,93.1667 278.5,93.5C 277.83,93.0187 277.83,92.6853 278.5,92.5 Z"/></g>
<g><path style="opacity:0.016" fill="#f4f5f4" d="M 282.5,92.5 C 281.833,93.1667 281.833,93.1667 282.5,92.5 Z"/></g>
<g><path style="opacity:0.004" fill="#f4f5f4" d="M 449.5,93.5 C 448.833,92.1667 448.833,92.1667 449.5,93.5 Z"/></g>
<g><path style="opacity:0.008" fill="#f7f8f7" d="M 278.5,93.5 C 279.833,94.1667 279.833,94.1667 278.5,93.5 Z"/></g>
<g><path style="opacity:0.743" fill="#3f3f3f" d="M 274.5,94.5 C 275.209,93.596 276.209,93.2627 277.5,93.5C 277.5,96.1667 277.5,98.8333 277.5,101.5C 277.5,103.167 277.5,104.833 277.5,106.5C 277.167,106.5 276.833,106.5 276.5,106.5C 277.089,102.029 276.423,98.0293 274.5,94.5 Z"/></g>
<g><path style="opacity:0.706" fill="#838383" d="M 353.5,95.5 C 353.027,96.9063 352.027,97.573 350.5,97.5C 350.973,96.0937 351.973,95.427 353.5,95.5 Z"/></g>
<g><path style="opacity:0.49" fill="#a2a2a2" d="M 432.5,90.5 C 433.461,92.2646 433.795,94.2646 433.5,96.5C 434.833,96.5 436.167,96.5 437.5,96.5C 436.081,97.4511 434.415,97.7845 432.5,97.5C 432.5,95.1667 432.5,92.8333 432.5,90.5 Z"/></g>
<g><path style="opacity:0.019" fill="#f0f0f0" d="M 277.5,101.5 C 279.373,102.896 279.706,104.563 278.5,106.5C 278.167,106.5 277.833,106.5 277.5,106.5C 277.5,104.833 277.5,103.167 277.5,101.5 Z"/></g>
<g><path style="opacity:0.592" fill="#8c8c8c" d="M 389.5,102.5 C 390.404,103.209 390.737,104.209 390.5,105.5C 389.5,105.5 388.5,105.5 387.5,105.5C 388.551,104.778 389.218,103.778 389.5,102.5 Z"/></g>
<g><path style="opacity:0.613" fill="#808080" d="M 412.5,88.5 C 412.5,94.1667 412.5,99.8333 412.5,105.5C 407.5,105.5 402.5,105.5 397.5,105.5C 397.205,103.265 397.539,101.265 398.5,99.5C 398.5,101.167 398.5,102.833 398.5,104.5C 402.833,104.5 407.167,104.5 411.5,104.5C 411.179,98.9738 411.512,93.6405 412.5,88.5 Z"/></g>
<g><path style="opacity:0.941" fill="#707070" d="M 165.5,95.5 C 166.205,98.2281 166.872,101.061 167.5,104C 167.049,107.346 166.382,110.846 165.5,114.5C 165.5,108.167 165.5,101.833 165.5,95.5 Z"/></g>
<g><path style="opacity:0.008" fill="#fbfcfb" d="M 242.5,105.5 C 243.833,106.167 243.833,106.167 242.5,105.5 Z"/></g>
<g><path style="opacity:0.014" fill="#bbbbbb" d="M 293.5,104.5 C 295.403,104.796 297.07,105.463 298.5,106.5C 297.07,106.421 295.736,106.754 294.5,107.5C 294.483,106.606 294.149,105.606 293.5,104.5 Z"/></g>
<g><path style="opacity:0.373" fill="#878787" d="M 329.5,104.5 C 330.995,104.989 332.329,105.655 333.5,106.5C 332.127,106.657 330.793,106.49 329.5,106C 328.262,105.31 328.262,104.81 329.5,104.5 Z"/></g>
<g><path style="opacity:0.208" fill="#c1c1c1" d="M 217.5,106.5 C 220.5,106.5 223.5,106.5 226.5,106.5C 226.217,107.289 225.717,107.956 225,108.5C 222.393,107.877 219.893,107.21 217.5,106.5 Z"/></g>
<g><path style="opacity:0.361" fill="#8b8b8b" d="M 245.5,97.5 C 245.5,100.5 245.5,103.5 245.5,106.5C 255.833,106.5 266.167,106.5 276.5,106.5C 276.833,106.5 277.167,106.5 277.5,106.5C 267.098,107.177 256.598,107.844 246,108.5C 244.912,106.712 244.412,104.712 244.5,102.5C 244.507,100.631 244.84,98.964 245.5,97.5 Z"/></g>
<g><path style="opacity:0.012" fill="#ececec" d="M 278.5,106.5 C 279.833,107.167 279.833,107.833 278.5,108.5C 278.5,107.833 278.5,107.167 278.5,106.5 Z"/></g>
<g><path style="opacity:0.008" fill="#f6f7f6" d="M 243.5,108.5 C 244.833,109.167 244.833,109.167 243.5,108.5 Z"/></g>
<g><path style="opacity:0.02" fill="#f1f2f1" d="M 278.5,108.5 C 277.833,109.167 277.833,109.167 278.5,108.5 Z"/></g>
<g><path style="opacity:0.241" fill="#d5d5d5" d="M 72.5,112.5 C 73.2674,113.172 73.9341,114.005 74.5,115C 74.2716,115.399 73.9382,115.565 73.5,115.5C 72.596,114.791 72.2627,113.791 72.5,112.5 Z"/></g>
<g><path style="opacity:0.008" fill="#f4f5f4" d="M 217.5,113.5 C 218.833,114.167 218.833,114.167 217.5,113.5 Z"/></g>
<g><path style="opacity:0.004" fill="#f5f6f5" d="M 332.5,113.5 C 333.833,114.167 333.833,114.167 332.5,113.5 Z"/></g>
<g><path style="opacity:0.999" fill="#171717" d="M 443.5,114.5 C 444.29,115.401 445.29,116.068 446.5,116.5C 451.915,120.507 452.915,125.507 449.5,131.5C 445.358,134.407 441.524,134.074 438,130.5C 437.289,128.101 437.456,125.768 438.5,123.5C 434.616,120.45 431.616,121.283 429.5,126C 429.865,128.277 430.531,130.777 431.5,133.5C 431.973,134.906 432.973,135.573 434.5,135.5C 434.5,136.167 434.833,136.5 435.5,136.5C 436.035,138.446 437.368,139.446 439.5,139.5C 442.83,141.169 445.497,143.502 447.5,146.5C 447.833,147.5 448.5,148.167 449.5,148.5C 451.289,150.651 452.622,153.151 453.5,156C 452.485,158.283 452.151,160.783 452.5,163.5C 451.326,164.514 450.66,165.847 450.5,167.5C 450.267,169.062 449.6,170.395 448.5,171.5C 447.167,172.167 446.167,173.167 445.5,174.5C 445.167,174.5 444.833,174.5 444.5,174.5C 443.209,174.263 442.209,174.596 441.5,175.5C 437.833,175.5 434.167,175.5 430.5,175.5C 428.297,175.396 426.297,174.73 424.5,173.5C 417.151,167.323 416.818,160.823 423.5,154C 430.38,152.091 434.047,154.591 434.5,161.5C 433.89,162.391 433.557,163.391 433.5,164.5C 431.164,166.073 431.164,167.406 433.5,168.5C 436.012,169.867 438.345,169.534 440.5,167.5C 442.953,163.711 443.12,159.711 441,155.5C 437.267,152.255 433.434,149.255 429.5,146.5C 429.027,145.094 428.027,144.427 426.5,144.5C 423.441,142.603 421.274,139.936 420,136.5C 417.832,118.162 425.665,110.829 443.5,114.5 Z"/></g>
<g><path style="opacity:0.008" fill="#f7f8f7" d="M 197.5,114.5 C 198.833,115.167 198.833,115.167 197.5,114.5 Z"/></g>
<g><path style="opacity:0.999" fill="#181818" d="M 332.5,114.5 C 341.377,121.707 345.711,131.207 345.5,143C 344.734,144.368 344.4,145.535 344.5,146.5C 343.523,149.287 343.19,152.287 343.5,155.5C 343.517,161.112 341.851,166.112 338.5,170.5C 336.767,171.008 336.434,171.841 337.5,173C 335.221,173.473 333.221,174.473 331.5,176C 322.907,179.348 316.24,176.848 311.5,168.5C 311.672,167.508 311.338,166.842 310.5,166.5C 307.142,160.022 305.808,153.022 306.5,145.5C 306.113,138.58 307.113,131.914 309.5,125.5C 310.906,125.027 311.573,124.027 311.5,122.5C 311.427,120.973 312.094,119.973 313.5,119.5C 314.5,119.167 315.167,118.5 315.5,117.5C 316.058,116.21 317.058,115.377 318.5,115C 323.108,113.288 327.775,113.121 332.5,114.5 Z M 332.5,130.5 C 331.685,132.931 332.018,135.264 333.5,137.5C 333.867,146.628 333.034,155.628 331,164.5C 327.731,170.457 324.231,170.79 320.5,165.5C 320.125,163.302 319.458,161.302 318.5,159.5C 317.023,148.235 317.523,137.235 320,126.5C 321.075,122.548 323.575,121.048 327.5,122C 330.108,124.398 331.775,127.231 332.5,130.5 Z"/></g>
<g><path style="opacity:0.004" fill="#f7f8f7" d="M 349.5,114.5 C 350.833,115.167 350.833,115.167 349.5,114.5 Z"/></g>
<g><path style="opacity:0.071" fill="#bdbdbd" d="M 443.5,114.5 C 445.179,114.285 446.179,114.952 446.5,116.5C 445.29,116.068 444.29,115.401 443.5,114.5 Z"/></g>
<g><path style="opacity:0.496" fill="#7d7d7d" d="M 239.5,115.5 C 248.5,115.5 257.5,115.5 266.5,115.5C 266.905,119.048 266.405,122.381 265,125.5C 259.5,124.189 254,124.189 248.5,125.5C 253.735,123.55 259.402,122.883 265.5,123.5C 265.5,121.167 265.5,118.833 265.5,116.5C 256.651,116.826 247.984,116.493 239.5,115.5 Z"/></g>
<g><path style="opacity:0.392" fill="#a5a5a5" d="M 288.5,116.5 C 283.167,116.5 277.833,116.5 272.5,116.5C 275.977,115.677 279.644,115.177 283.5,115C 284,114.5 284.5,114 285,113.5C 285.985,114.814 287.152,115.814 288.5,116.5 Z"/></g>
<g><path style="opacity:0.004" fill="#f7f8f7" d="M 349.5,115.5 C 349.5,115.833 349.5,116.167 349.5,116.5C 348.83,116.019 348.83,115.685 349.5,115.5 Z"/></g>
<g><path style="opacity:0.635" fill="#848484" d="M 372.5,116.5 C 365.833,116.5 359.167,116.5 352.5,116.5C 359.315,114.594 365.982,114.594 372.5,116.5 Z"/></g>
<g><path style="opacity:0.341" fill="#b8b8b8" d="M 400.5,116.5 C 405.975,115.511 411.642,115.178 417.5,115.5C 417.81,118.713 417.477,121.713 416.5,124.5C 416.5,121.833 416.5,119.167 416.5,116.5C 411.167,116.5 405.833,116.5 400.5,116.5 Z"/></g>
<g><path style="opacity:0.999" fill="#121212" d="M 224.5,117.5 C 224.973,118.906 225.973,119.573 227.5,119.5C 235.307,127.103 235.307,134.77 227.5,142.5C 226.088,143.806 224.421,144.64 222.5,145C 226.878,146.346 229.211,149.012 229.5,153C 230.84,158.042 231.673,163.209 232,168.5C 232.306,170.906 233.139,173.073 234.5,175C 234.167,175.5 233.833,176 233.5,176.5C 229.889,175.738 226.222,175.238 222.5,175C 221.934,174.005 221.267,173.172 220.5,172.5C 221.192,165.053 219.859,158.053 216.5,151.5C 216.027,150.094 215.027,149.427 213.5,149.5C 212.081,148.549 210.415,148.216 208.5,148.5C 208.5,157.167 208.5,165.833 208.5,174.5C 205.5,174.5 202.5,174.5 199.5,174.5C 198.566,173.432 198.232,172.099 198.5,170.5C 198.5,168.5 198.5,166.5 198.5,164.5C 199.833,150.833 199.833,137.167 198.5,123.5C 197.781,121.236 197.448,118.903 197.5,116.5C 206.64,114.842 215.64,115.175 224.5,117.5 Z M 209.5,123.5 C 211.703,123.935 213.703,123.935 215.5,123.5C 215.842,124.338 216.508,124.672 217.5,124.5C 217.409,126.698 218.075,127.031 219.5,125.5C 219.833,126.167 220.167,126.833 220.5,127.5C 221.024,129.306 221.691,130.972 222.5,132.5C 222.071,135.147 220.738,137.147 218.5,138.5C 217.341,140.25 215.674,141.25 213.5,141.5C 212.527,140.209 211.527,140.209 210.5,141.5C 209.831,139.369 209.165,137.369 208.5,135.5C 208.237,131.4 208.57,127.4 209.5,123.5 Z"/></g>
<g><path style="opacity:0.999" fill="#141414" d="M 239.5,115.5 C 247.984,116.493 256.651,116.826 265.5,116.5C 265.5,118.833 265.5,121.167 265.5,123.5C 259.402,122.883 253.735,123.55 248.5,125.5C 249.098,129.779 249.098,134.446 248.5,139.5C 252.394,139.694 256.394,139.361 260.5,138.5C 261.051,141.807 261.384,145.14 261.5,148.5C 257.182,148.303 253.015,148.303 249,148.5C 248.652,153.368 248.486,158.034 248.5,162.5C 248.5,164.5 248.5,166.5 248.5,168.5C 251.385,168.806 254.052,168.473 256.5,167.5C 259.47,166.835 262.47,166.169 265.5,165.5C 266.248,168.497 266.915,171.497 267.5,174.5C 266.758,175.287 265.925,175.953 265,176.5C 257.376,175.57 249.876,175.237 242.5,175.5C 240.833,175.5 239.167,175.5 237.5,175.5C 238.756,157.334 238.756,139.167 237.5,121C 237.547,118.705 238.213,116.871 239.5,115.5 Z"/></g>
<g><path style="opacity:0.999" fill="#151515" d="M 272.5,116.5 C 277.833,116.5 283.167,116.5 288.5,116.5C 290.415,116.216 292.081,116.549 293.5,117.5C 294.514,118.674 295.847,119.34 297.5,119.5C 298.167,119.5 298.5,119.833 298.5,120.5C 298.833,121.5 299.5,122.167 300.5,122.5C 301.79,123.058 302.623,124.058 303,125.5C 306.935,143.709 299.768,154.043 281.5,156.5C 281.787,160.316 281.787,163.983 281.5,167.5C 281.5,170.5 281.5,173.5 281.5,176.5C 278.167,176.5 274.833,176.5 271.5,176.5C 271.5,171.833 271.5,167.167 271.5,162.5C 271.817,147.785 271.483,133.118 270.5,118.5C 270.855,117.478 271.522,116.811 272.5,116.5 Z M 285.5,123.5 C 288.397,124.558 290.564,126.558 292,129.5C 292.648,134.204 292.481,138.871 291.5,143.5C 289.738,144.262 288.738,145.596 288.5,147.5C 286.45,147.961 284.45,148.628 282.5,149.5C 282.167,148.833 281.833,148.167 281.5,147.5C 281.67,142.571 281.67,137.571 281.5,132.5C 282.477,129.713 282.81,126.713 282.5,123.5C 283.5,123.5 284.5,123.5 285.5,123.5 Z"/></g>
<g><path style="opacity:0.999" fill="#151515" d="M 349.5,116.5 C 350.5,116.5 351.5,116.5 352.5,116.5C 359.167,116.5 365.833,116.5 372.5,116.5C 376.37,117.263 379.37,119.263 381.5,122.5C 381.66,124.153 382.326,125.486 383.5,126.5C 385.86,135.051 382.86,141.051 374.5,144.5C 373.957,144.56 373.624,144.893 373.5,145.5C 374.325,146.386 375.325,146.719 376.5,146.5C 378.543,147.579 379.876,149.246 380.5,151.5C 380.216,153.415 380.549,155.081 381.5,156.5C 381.92,162.711 383.254,168.711 385.5,174.5C 385.158,175.338 384.492,175.672 383.5,175.5C 379.731,175.756 376.064,175.423 372.5,174.5C 371.936,168.469 371.103,162.469 370,156.5C 368.655,151.651 365.489,149.318 360.5,149.5C 359.507,157.65 359.174,165.983 359.5,174.5C 356.308,175.459 353.308,175.459 350.5,174.5C 349.596,173.791 349.263,172.791 349.5,171.5C 349.5,153.167 349.5,134.833 349.5,116.5 Z M 361.5,123.5 C 365.195,123.35 368.528,124.35 371.5,126.5C 371.796,128.403 372.463,130.07 373.5,131.5C 372.833,133.5 372.167,135.5 371.5,137.5C 370.167,138.167 369.167,139.167 368.5,140.5C 365.873,141.092 363.206,141.425 360.5,141.5C 360.211,135.409 360.545,129.409 361.5,123.5 Z"/></g>
<g><path style="opacity:0.999" fill="#0d0d0d" d="M 400.5,116.5 C 405.833,116.5 411.167,116.5 416.5,116.5C 416.5,119.167 416.5,121.833 416.5,124.5C 416.167,124.5 415.833,124.5 415.5,124.5C 412.5,124.5 409.5,124.5 406.5,124.5C 406.5,125.5 406.5,126.5 406.5,127.5C 407.031,142.828 407.364,158.161 407.5,173.5C 407.5,174.167 407.5,174.833 407.5,175.5C 405.5,175.5 403.5,175.5 401.5,175.5C 400.167,175.5 398.833,175.5 397.5,175.5C 397.5,171.833 397.5,168.167 397.5,164.5C 397.5,151.5 397.5,138.5 397.5,125.5C 396.167,125.5 394.833,125.5 393.5,125.5C 391.5,125.5 389.5,125.5 387.5,125.5C 387.784,123.585 387.451,121.919 386.5,120.5C 386.227,118.042 387.227,116.375 389.5,115.5C 393.094,116.426 396.76,116.759 400.5,116.5 Z"/></g>
<g><path style="opacity:0.016" fill="#c9c9c9" d="M 224.5,117.5 C 226.027,117.427 227.027,118.094 227.5,119.5C 225.973,119.573 224.973,118.906 224.5,117.5 Z"/></g>
<g><path style="opacity:0.369" fill="#a1a1a1" d="M 293.5,117.5 C 295.38,117.229 296.713,117.896 297.5,119.5C 295.847,119.34 294.514,118.674 293.5,117.5 Z"/></g>
<g><path style="opacity:0.216" fill="#cecece" d="M 315.5,117.5 C 315.167,118.5 314.5,119.167 313.5,119.5C 313.5,118.167 314.167,117.5 315.5,117.5 Z"/></g>
<g><path style="opacity:0.008" fill="#bababa" d="M 298.5,120.5 C 299.833,120.5 300.5,121.167 300.5,122.5C 299.5,122.167 298.833,121.5 298.5,120.5 Z"/></g>
<g><path style="opacity:0.114" fill="#dbdbdb" d="M 66.5,120.5 C 67.404,121.209 67.7373,122.209 67.5,123.5C 65.6182,122.779 65.2848,121.779 66.5,120.5 Z"/></g>
<g><path style="opacity:0.345" fill="#a2a2a2" d="M 156.5,119.5 C 156.573,121.027 155.906,122.027 154.5,122.5C 154.427,120.973 155.094,119.973 156.5,119.5 Z"/></g>
<g><path style="opacity:0.467" fill="#979797" d="M 386.5,120.5 C 387.451,121.919 387.784,123.585 387.5,125.5C 389.5,125.5 391.5,125.5 393.5,125.5C 391.393,126.468 389.059,126.802 386.5,126.5C 386.5,124.5 386.5,122.5 386.5,120.5 Z"/></g>
<g><path style="opacity:0.514" fill="#646464" d="M 209.5,123.5 C 211.5,122.167 213.5,122.167 215.5,123.5C 213.703,123.935 211.703,123.935 209.5,123.5 Z"/></g>
<g><path style="opacity:0.839" fill="#868686" d="M 74.5,120.5 C 75.5375,121.93 76.2041,123.597 76.5,125.5C 74.7868,124.365 74.1201,122.698 74.5,120.5 Z"/></g>
<g><path style="opacity:0.008" fill="#f7f8f7" d="M 196.5,123.5 C 197.833,124.167 197.833,124.167 196.5,123.5 Z"/></g>
<g><path style="opacity:0.004" fill="#f6f7f6" d="M 342.5,123.5 C 343.833,124.167 343.833,124.167 342.5,123.5 Z"/></g>
<g><path style="opacity:0.314" fill="#a4a4a4" d="M 311.5,122.5 C 311.573,124.027 310.906,125.027 309.5,125.5C 309.427,123.973 310.094,122.973 311.5,122.5 Z"/></g>
<g><path style="opacity:0.243" fill="#b1b1b1" d="M 381.5,122.5 C 383.104,123.287 383.771,124.62 383.5,126.5C 382.326,125.486 381.66,124.153 381.5,122.5 Z"/></g>
<g><path style="opacity:0.09" fill="#d4d4d4" d="M 415.5,124.5 C 412.366,125.035 409.366,126.035 406.5,127.5C 406.5,126.5 406.5,125.5 406.5,124.5C 409.5,124.5 412.5,124.5 415.5,124.5 Z"/></g>
<g><path style="opacity:0.004" fill="#d0d0d0" d="M 217.5,124.5 C 218.492,124.328 219.158,124.662 219.5,125.5C 218.075,127.031 217.409,126.698 217.5,124.5 Z"/></g>
<g><path style="opacity:0.255" fill="#c0c0c0" d="M 285.5,123.5 C 284.5,123.5 283.5,123.5 282.5,123.5C 282.81,126.713 282.477,129.713 281.5,132.5C 281.5,129.167 281.5,125.833 281.5,122.5C 283.099,122.232 284.432,122.566 285.5,123.5 Z"/></g>
<g><path style="opacity:0.239" fill="#c5c5c5" d="M 361.5,123.5 C 360.545,129.409 360.211,135.409 360.5,141.5C 360.167,141.5 359.833,141.5 359.5,141.5C 358.88,135.074 359.547,129.074 361.5,123.5 Z"/></g>
<g><path style="opacity:0.867" fill="#7b7b7b" d="M 220.5,127.5 C 222.256,128.552 222.923,130.219 222.5,132.5C 221.691,130.972 221.024,129.306 220.5,127.5 Z"/></g>
<g><path style="opacity:0.506" fill="#969696" d="M 371.5,126.5 C 373.213,127.635 373.88,129.302 373.5,131.5C 372.463,130.07 371.796,128.403 371.5,126.5 Z"/></g>
<g><path style="opacity:0.004" fill="#c9c9c9" d="M 431.5,133.5 C 433.027,133.427 434.027,134.094 434.5,135.5C 432.973,135.573 431.973,134.906 431.5,133.5 Z"/></g>
<g><path style="opacity:0.494" fill="#8e8e8e" d="M 93.5,134.5 C 95.4044,134.738 96.7377,135.738 97.5,137.5C 95.5956,137.262 94.2623,136.262 93.5,134.5 Z"/></g>
<g><path style="opacity:0.027" fill="#c1c1c1" d="M 332.5,130.5 C 333.468,132.607 333.802,134.941 333.5,137.5C 332.018,135.264 331.685,132.931 332.5,130.5 Z"/></g>
<g><path style="opacity:0.863" fill="#8a8a8a" d="M 435.5,136.5 C 437.23,137.026 438.564,138.026 439.5,139.5C 437.368,139.446 436.035,138.446 435.5,136.5 Z"/></g>
<g><path style="opacity:0.5" fill="#6c6c6c" d="M 198.5,123.5 C 199.833,137.167 199.833,150.833 198.5,164.5C 198.438,150.654 198.438,136.987 198.5,123.5 Z"/></g>
<g><path style="opacity:0.012" fill="#f1f2f1" d="M 442.5,138.5 C 443.833,139.167 443.833,139.167 442.5,138.5 Z"/></g>
<g><path style="opacity:0.024" fill="#d9d9d9" d="M 174.5,138.5 C 174.5,139.833 173.833,140.5 172.5,140.5C 172.833,139.5 173.5,138.833 174.5,138.5 Z"/></g>
<g><path style="opacity:0.741" fill="#7c7c7c" d="M 371.5,137.5 C 371.5,139.5 370.5,140.5 368.5,140.5C 369.167,139.167 370.167,138.167 371.5,137.5 Z"/></g>
<g><path style="opacity:0.322" fill="#b3b3b3" d="M 164.5,138.5 C 164.573,140.027 163.906,141.027 162.5,141.5C 162.427,139.973 163.094,138.973 164.5,138.5 Z"/></g>
<g><path style="opacity:0.494" fill="#a4a4a4" d="M 208.5,135.5 C 209.165,137.369 209.831,139.369 210.5,141.5C 211.527,140.209 212.527,140.209 213.5,141.5C 212.081,142.451 210.415,142.784 208.5,142.5C 208.5,140.167 208.5,137.833 208.5,135.5 Z"/></g>
<g><path style="opacity:0.89" fill="#686868" d="M 368.5,140.5 C 367.054,141.94 365.221,142.607 363,142.5C 361.615,142.486 360.449,142.152 359.5,141.5C 359.833,141.5 360.167,141.5 360.5,141.5C 363.206,141.425 365.873,141.092 368.5,140.5 Z"/></g>
<g><path style="opacity:0.008" fill="#f7f8f7" d="M 377.5,144.5 C 378.833,145.167 378.833,145.167 377.5,144.5 Z"/></g>
<g><path style="opacity:0.6" fill="#878787" d="M 291.5,143.5 C 291.262,145.404 290.262,146.738 288.5,147.5C 288.738,145.596 289.738,144.262 291.5,143.5 Z"/></g>
<g><path style="opacity:0.867" fill="#808080" d="M 374.5,144.5 C 375.167,145.167 375.833,145.833 376.5,146.5C 375.325,146.719 374.325,146.386 373.5,145.5C 373.624,144.893 373.957,144.56 374.5,144.5 Z"/></g>
<g><path style="opacity:0.502" fill="#828282" d="M 426.5,144.5 C 428.027,144.427 429.027,145.094 429.5,146.5C 427.973,146.573 426.973,145.906 426.5,144.5 Z"/></g>
<g><path style="opacity:0.749" fill="#7b7b7b" d="M 115.5,146.5 C 118.385,146.194 121.052,146.527 123.5,147.5C 123.565,147.938 123.399,148.272 123,148.5C 120.393,147.877 117.893,147.21 115.5,146.5 Z"/></g>
<g><path style="opacity:0.016" fill="#b9b9b9" d="M 447.5,146.5 C 448.833,146.5 449.5,147.167 449.5,148.5C 448.5,148.167 447.833,147.5 447.5,146.5 Z"/></g>
<g><path style="opacity:0.078" fill="#b1b1b1" d="M 81.5,146.5 C 82.8333,147.167 83.8333,148.167 84.5,149.5C 82.5,149.5 81.5,148.5 81.5,146.5 Z"/></g>
<g><path style="opacity:0.857" fill="#616161" d="M 344.5,146.5 C 345.16,149.557 344.827,152.557 343.5,155.5C 343.19,152.287 343.523,149.287 344.5,146.5 Z"/></g>
<g><path style="opacity:0.004" fill="#f7f8f7" d="M 229.5,148.5 C 230.833,149.167 230.833,149.167 229.5,148.5 Z"/></g>
<g><path style="opacity:0.859" fill="#868686" d="M 95.5,148.5 C 97.2303,149.026 98.5637,150.026 99.5,151.5C 97.368,151.446 96.0347,150.446 95.5,148.5 Z"/></g>
<g><path style="opacity:0.475" fill="#a3a3a3" d="M 213.5,149.5 C 215.027,149.427 216.027,150.094 216.5,151.5C 214.973,151.573 213.973,150.906 213.5,149.5 Z"/></g>
<g><path style="opacity:0.737" fill="#898989" d="M 152.5,149.5 C 152.027,150.906 151.027,151.573 149.5,151.5C 149.973,150.094 150.973,149.427 152.5,149.5 Z"/></g>
<g><path style="opacity:0.742" fill="#4e4e4e" d="M 360.5,149.5 C 360.193,157.788 360.527,165.955 361.5,174C 360.906,174.464 360.239,174.631 359.5,174.5C 359.174,165.983 359.507,157.65 360.5,149.5 Z"/></g>
<g><path style="opacity:0.129" fill="#c9c9c9" d="M 149.5,151.5 C 149.158,152.338 148.492,152.672 147.5,152.5C 147.409,150.302 148.075,149.969 149.5,151.5 Z"/></g>
<g><path style="opacity:0.622" fill="#646464" d="M 213.5,149.5 C 212.167,149.5 210.833,149.5 209.5,149.5C 209.174,157.684 209.508,165.684 210.5,173.5C 210.158,174.338 209.492,174.672 208.5,174.5C 208.5,165.833 208.5,157.167 208.5,148.5C 210.415,148.216 212.081,148.549 213.5,149.5 Z"/></g>
<g><path style="opacity:0.482" fill="#878787" d="M 86.5,151.5 C 88.0269,151.427 89.0269,152.094 89.5,153.5C 87.9731,153.573 86.9731,152.906 86.5,151.5 Z"/></g>
<g><path style="opacity:0.725" fill="#868686" d="M 380.5,151.5 C 381.234,152.878 381.901,154.378 382.5,156C 382.272,156.399 381.938,156.565 381.5,156.5C 380.549,155.081 380.216,153.415 380.5,151.5 Z"/></g>
<g><path style="opacity:0.502" fill="#868686" d="M 90.5,154.5 C 92.0269,154.427 93.0269,155.094 93.5,156.5C 91.9731,156.573 90.9731,155.906 90.5,154.5 Z"/></g>
<g><path style="opacity:0.004" fill="#f5f6f5" d="M 434.5,155.5 C 435.833,156.167 435.833,156.167 434.5,155.5 Z"/></g>
<g><path style="opacity:0.008" fill="#f7f8f7" d="M 344.5,156.5 C 345.833,157.167 345.833,157.167 344.5,156.5 Z"/></g>
<g><path style="opacity:0.878" fill="#757575" d="M 318.5,159.5 C 319.458,161.302 320.125,163.302 320.5,165.5C 318.72,164.01 318.054,162.01 318.5,159.5 Z"/></g>
<g><path style="opacity:0.165" fill="#d1d1d1" d="M 434.5,161.5 C 436.981,162.86 436.648,163.86 433.5,164.5C 433.557,163.391 433.89,162.391 434.5,161.5 Z"/></g>
<g><path style="opacity:0.004" fill="#f3f4f3" d="M 137.5,164.5 C 138.833,165.167 138.833,165.167 137.5,164.5 Z"/></g>
<g><path style="opacity:0.388" fill="#a4a4a4" d="M 452.5,163.5 C 452.771,165.38 452.104,166.713 450.5,167.5C 450.66,165.847 451.326,164.514 452.5,163.5 Z"/></g>
<g><path style="opacity:0.502" fill="#888888" d="M 248.5,162.5 C 249.289,162.783 249.956,163.283 250.5,164C 249.663,165.011 249.33,166.178 249.5,167.5C 251.833,167.5 254.167,167.5 256.5,167.5C 254.052,168.473 251.385,168.806 248.5,168.5C 248.5,166.5 248.5,164.5 248.5,162.5 Z"/></g>
<g><path style="opacity:0.082" fill="#cecece" d="M 310.5,166.5 C 311.338,166.842 311.672,167.508 311.5,168.5C 309.302,168.591 308.969,167.925 310.5,166.5 Z"/></g>
<g><path style="opacity:0.024" fill="#f1f2f1" d="M 340.5,168.5 C 341.833,169.167 341.833,169.167 340.5,168.5 Z"/></g>
<g><path style="opacity:0.149" fill="#d1d1d1" d="M 440.5,167.5 C 438.345,169.534 436.012,169.867 433.5,168.5C 434.847,167.829 436.014,167.829 437,168.5C 437.333,167.833 437.667,167.167 438,166.5C 438.671,167.252 439.504,167.586 440.5,167.5 Z"/></g>
<g><path style="opacity:0.016" fill="#f2f3f2" d="M 338.5,170.5 C 339.833,171.167 339.833,171.167 338.5,170.5 Z"/></g>
<g><path style="opacity:0.38" fill="#b1b1b1" d="M 198.5,170.5 C 198.232,172.099 198.566,173.432 199.5,174.5C 198.749,175.573 197.749,175.74 196.5,175C 197.099,173.378 197.766,171.878 198.5,170.5 Z"/></g>
<g><path style="opacity:0.52" fill="#9d9d9d" d="M 397.5,164.5 C 397.5,168.167 397.5,171.833 397.5,175.5C 398.833,175.5 400.167,175.5 401.5,175.5C 400.081,176.451 398.415,176.784 396.5,176.5C 396.183,172.298 396.517,168.298 397.5,164.5 Z"/></g>
<g><path style="opacity:0.004" fill="#f4f5f4" d="M 448.5,171.5 C 449.833,172.167 449.833,172.167 448.5,171.5 Z"/></g>
<g><path style="opacity:0.004" fill="#f7f8f7" d="M 210.5,172.5 C 211.833,173.167 211.833,173.167 210.5,172.5 Z"/></g>
<g><path style="opacity:0.008" fill="#f7f8f7" d="M 220.5,172.5 C 219.833,173.167 219.833,173.167 220.5,172.5 Z"/></g>
<g><path style="opacity:0.122" fill="#d1d1d1" d="M 349.5,171.5 C 349.263,172.791 349.596,173.791 350.5,174.5C 349.528,175.751 348.861,175.418 348.5,173.5C 348.543,172.584 348.876,171.917 349.5,171.5 Z"/></g>
<g><path style="opacity:0.004" fill="#f8f9f8" d="M 372.5,174.5 C 371.833,175.167 371.833,175.167 372.5,174.5 Z"/></g>
<g><path style="opacity:0.098" fill="#eeeeee" d="M 407.5,173.5 C 409.933,174.548 409.933,175.214 407.5,175.5C 407.5,174.833 407.5,174.167 407.5,173.5 Z"/></g>
<g><path style="opacity:0.016" fill="#d8d8d8" d="M 441.5,175.5 C 442.209,174.596 443.209,174.263 444.5,174.5C 444.5,175.833 443.833,176.5 442.5,176.5C 442.5,175.833 442.167,175.5 441.5,175.5 Z"/></g>
<g><path style="opacity:0.004" fill="#f5f6f5" d="M 445.5,174.5 C 446.833,175.167 446.833,175.167 445.5,174.5 Z"/></g>
<g><path style="opacity:0.235" fill="#cecece" d="M 237.5,175.5 C 239.167,175.5 240.833,175.5 242.5,175.5C 241.122,176.234 239.622,176.901 238,177.5C 237.536,176.906 237.369,176.239 237.5,175.5 Z"/></g>
<g><path style="opacity:0.004" fill="#efefef" d="M 385.5,174.5 C 386.713,175.497 386.546,176.497 385,177.5C 384.283,176.956 383.783,176.289 383.5,175.5C 384.492,175.672 385.158,175.338 385.5,174.5 Z"/></g>
<g><path style="opacity:0.012" fill="#ebebeb" d="M 424.5,173.5 C 426.297,174.73 428.297,175.396 430.5,175.5C 430.5,176.167 430.833,176.5 431.5,176.5C 429.965,177.788 428.299,177.788 426.5,176.5C 425.624,175.749 424.624,175.249 423.5,175C 424.056,174.617 424.389,174.117 424.5,173.5 Z"/></g>
<g><path style="opacity:0.647" fill="#909090" d="M 430.5,175.5 C 434.167,175.5 437.833,175.5 441.5,175.5C 441.5,175.833 441.5,176.167 441.5,176.5C 438.854,176.892 436.354,176.892 434,176.5C 433.667,177.167 433.333,177.833 433,178.5C 432.722,177.584 432.222,176.918 431.5,176.5C 430.833,176.5 430.5,176.167 430.5,175.5 Z"/></g>
<g><path style="opacity:0.129" fill="#b2b2b2" d="M 271.5,162.5 C 271.5,167.167 271.5,171.833 271.5,176.5C 274.833,176.5 278.167,176.5 281.5,176.5C 281.5,173.5 281.5,170.5 281.5,167.5C 282.479,170.625 282.813,173.958 282.5,177.5C 278.5,177.5 274.5,177.5 270.5,177.5C 270.179,172.305 270.513,167.305 271.5,162.5 Z"/></g>
<g><path style="opacity:0.016" fill="#edeeed" d="M 441.5,176.5 C 441.833,176.5 442.167,176.5 442.5,176.5C 442.315,177.17 441.981,177.17 441.5,176.5 Z"/></g>
</svg>
